<svg xmlns="http://www.w3.org/2000/svg" xmlns:xlink="http://www.w3.org/1999/xlink" width="500" zoomAndPan="magnify" viewBox="0 0 375 374.999991" height="500" preserveAspectRatio="xMidYMid meet" version="1.0"><defs><clipPath id="94a6b2cdfd"><path d="M 37.125 38 L 337.875 38 L 337.875 337.5 L 37.125 337.5 Z M 37.125 38 " clip-rule="nonzero"/></clipPath></defs><g clip-path="url(#94a6b2cdfd)"><path fill="#ffffff" d="M 331.527344 238.121094 C 328.382812 238.121094 325.828125 235.566406 325.828125 232.417969 L 325.828125 57.535156 L 229.054688 154.308594 C 226.824219 156.53125 223.21875 156.53125 220.992188 154.308594 C 218.765625 152.082031 218.765625 148.472656 220.992188 146.246094 L 327.496094 39.738281 C 329.128906 38.109375 331.578125 37.621094 333.710938 38.503906 C 335.839844 39.386719 337.230469 41.464844 337.230469 43.769531 L 337.230469 232.417969 C 337.230469 235.566406 334.679688 238.121094 331.527344 238.121094 Z M 43.5 337.5 C 40.351562 337.5 37.796875 334.949219 37.796875 331.800781 L 37.796875 133.035156 C 37.796875 130.730469 39.1875 128.648438 41.316406 127.769531 C 43.449219 126.886719 45.902344 127.375 47.53125 129.003906 L 146.914062 228.386719 C 149.140625 230.613281 149.140625 234.222656 146.914062 236.449219 C 144.6875 238.675781 141.078125 238.675781 138.847656 236.449219 L 49.203125 146.796875 L 49.203125 331.800781 C 49.203125 334.949219 46.648438 337.5 43.5 337.5 Z M 331.527344 337.5 C 330.070312 337.5 328.613281 336.941406 327.496094 335.828125 L 39.46875 47.800781 C 37.242188 45.574219 37.242188 41.964844 39.46875 39.738281 C 41.695312 37.511719 45.304688 37.511719 47.53125 39.738281 L 335.558594 327.769531 C 337.785156 329.992188 337.785156 333.605469 335.558594 335.828125 C 334.445312 336.941406 332.984375 337.5 331.527344 337.5 " fill-opacity="1" fill-rule="nonzero"/></g></svg>